<?xml version="1.0" encoding="UTF-8" standalone="no"?>
<!DOCTYPE svg PUBLIC "-//W3C//DTD SVG 1.1//EN" "http://www.w3.org/Graphics/SVG/1.1/DTD/svg11.dtd">
<svg width="100%" height="100%" viewBox="0 0 170 170" version="1.1" xmlns="http://www.w3.org/2000/svg" xmlns:xlink="http://www.w3.org/1999/xlink" xml:space="preserve" xmlns:serif="http://www.serif.com/" style="fill-rule:evenodd;clip-rule:evenodd;stroke-linejoin:round;stroke-miterlimit:2;">
    <g transform="matrix(2.04489,0,0,2.86058,691.753,-737.9)">
        <g transform="matrix(1.98053,0,0,1.97666,330.677,-294.751)">
            <path d="M-320.8,283.1C-321.7,283.3 -323.4,284 -323.7,285.9C-323.9,286.9 -325.1,287.4 -325.1,287.4C-325.6,287.6 -325.9,288.1 -325.7,288.7C-325.6,289.1 -325.2,289.4 -324.8,289.4C-324.7,289.4 -324.6,289.4 -324.5,289.3C-324.4,289.3 -322.1,288.5 -321.7,286.2C-321.6,285.3 -320.5,285.1 -320.5,285.1C-320,285 -319.6,284.5 -319.7,283.9C-319.7,283.3 -320.2,283 -320.8,283.1Z" style="fill-rule:nonzero;"/>
        </g>
        <g transform="matrix(0.683193,0,0,0.681858,-70.5918,88.0652)">
            <path d="M-320.8,283.1C-321.7,283.3 -323.4,284 -323.7,285.9C-323.9,286.9 -325.1,287.4 -325.1,287.4C-325.6,287.6 -325.9,288.1 -325.7,288.7C-325.6,289.1 -325.2,289.4 -324.8,289.4C-324.7,289.4 -324.6,289.4 -324.5,289.3C-324.4,289.3 -322.1,288.5 -321.7,286.2C-321.6,285.3 -320.5,285.1 -320.5,285.1C-320,285 -319.6,284.5 -319.7,283.9C-319.7,283.3 -320.2,283 -320.8,283.1Z" style="fill-rule:nonzero;"/>
        </g>
        <g transform="matrix(2.03244,0,0,1.90531,373.272,-261.939)">
            <path d="M-343.4,280.4C-343.2,280.4 -343,280.5 -342.7,280.5C-341.8,280.5 -340.6,280.2 -339.8,279.2C-339.3,278.6 -338.5,278.9 -338.4,278.9C-337.9,279.1 -337.3,278.8 -337.1,278.3C-336.9,277.8 -337.2,277.2 -337.7,277C-338.5,276.7 -340.2,276.6 -341.3,277.9C-341.8,278.6 -343,278.4 -343,278.4C-343.5,278.3 -344.1,278.7 -344.2,279.2C-344.3,279.7 -344,280.3 -343.4,280.4Z" style="fill-rule:nonzero;"/>
        </g>
        <g transform="matrix(1.31694,0,0,1.27124,117.479,-87.245)">
            <path d="M-331.4,291.8C-331.2,291.5 -331.2,291.3 -331.2,290.8C-331.2,289.7 -331.1,287.3 -329.6,286.1C-328.1,284.9 -327.6,283.9 -327.2,283C-327,282.5 -326.8,282.1 -326.4,281.7C-326.1,281.5 -325.5,281.3 -324.9,281.1C-323.9,280.8 -322.7,280.5 -321.7,279.6C-321,279 -320.5,278.1 -320.1,277.4C-319.5,276.3 -319.1,275.6 -318.1,275.4C-316.7,275.1 -315.9,275.6 -315.8,275.7C-315.3,276 -314.7,275.9 -314.4,275.4C-314.1,274.9 -314.2,274.3 -314.7,274C-314.8,274 -316.3,272.9 -318.5,273.4C-320.3,273.8 -321.1,275.2 -321.8,276.4C-322.2,277 -322.5,277.6 -323,278C-323.7,278.6 -324.6,278.8 -325.4,279C-326.3,279.2 -327.1,279.5 -327.7,280C-328.4,280.6 -328.7,281.3 -329,281.9C-329.4,282.7 -329.7,283.4 -330.8,284.2C-333,285.9 -333.1,289 -333.2,290.4L-333.2,290.7C-333.3,291.1 -333.1,291.6 -332.7,291.8C-332.5,291.9 -332.4,291.9 -332.2,291.9C-331.9,292.3 -331.5,292.2 -331.4,291.8Z" style="fill-rule:nonzero;"/>
        </g>
        <g transform="matrix(1.31694,0,0,1.27124,117.479,-87.245)">
            <path d="M-331.4,291.8C-331.2,291.5 -331.2,291.3 -331.2,290.8C-331.2,289.7 -331.1,287.3 -329.6,286.1C-328.1,284.9 -327.6,283.9 -327.2,283C-327,282.5 -326.8,282.1 -326.4,281.7C-326.1,281.5 -325.5,281.3 -324.9,281.1C-323.9,280.8 -322.7,280.5 -321.7,279.6C-321,279 -320.5,278.1 -320.1,277.4C-319.5,276.3 -319.1,275.6 -318.1,275.4C-316.7,275.1 -315.9,275.6 -315.8,275.7C-315.3,276 -314.7,275.9 -314.4,275.4C-314.1,274.9 -314.2,274.3 -314.7,274C-314.8,274 -316.3,272.9 -318.5,273.4C-320.3,273.8 -321.1,275.2 -321.8,276.4C-322.2,277 -322.5,277.6 -323,278C-323.7,278.6 -324.6,278.8 -325.4,279C-326.3,279.2 -327.1,279.5 -327.7,280C-328.4,280.6 -328.7,281.3 -329,281.9C-329.4,282.7 -329.7,283.4 -330.8,284.2C-333,285.9 -333.1,289 -333.2,290.4L-333.2,290.7C-333.3,291.1 -333.1,291.6 -332.7,291.8C-332.5,291.9 -332.4,291.9 -332.2,291.9C-331.9,292.3 -331.5,292.2 -331.4,291.8Z" style="fill-rule:nonzero;"/>
        </g>
        <g transform="matrix(0.267671,0,0,0.167418,-192.622,226.672)">
            <path d="M-331.4,291.8C-331.2,291.5 -331.2,291.3 -331.2,290.8C-331.2,289.7 -331.1,287.3 -329.6,286.1C-328.1,284.9 -327.6,283.9 -327.2,283C-327,282.5 -326.8,282.1 -326.4,281.7C-326.1,281.5 -325.5,281.3 -324.9,281.1C-323.9,280.8 -322.7,280.5 -321.7,279.6C-321,279 -320.5,278.1 -320.1,277.4C-319.5,276.3 -319.1,275.6 -318.1,275.4C-316.7,275.1 -315.9,275.6 -315.8,275.7C-315.3,276 -314.7,275.9 -314.4,275.4C-314.1,274.9 -314.2,274.3 -314.7,274C-314.8,274 -316.3,272.9 -318.5,273.4C-320.3,273.8 -321.1,275.2 -321.8,276.4C-322.2,277 -322.5,277.6 -323,278C-323.7,278.6 -324.6,278.8 -325.4,279C-326.3,279.2 -327.1,279.5 -327.7,280C-328.4,280.6 -328.7,281.3 -329,281.9C-329.4,282.7 -329.7,283.4 -330.8,284.2C-333,285.9 -333.1,289 -333.2,290.4L-333.2,290.7C-333.3,291.1 -333.1,291.6 -332.7,291.8C-332.5,291.9 -332.4,291.9 -332.2,291.9C-331.9,292.3 -331.5,292.2 -331.4,291.8Z" style="fill-rule:nonzero;"/>
        </g>
        <g transform="matrix(1,0,0,1,-0.487366,-5.63263)">
            <path d="M-287.1,282.2C-287.4,281 -288.1,278.2 -290.4,277.1C-291.5,276.6 -291.9,276 -292.4,275.4C-292.8,274.9 -293.2,274.3 -294,273.9C-294.7,273.5 -295.5,273.5 -296.3,273.4C-297.1,273.4 -297.9,273.3 -298.6,272.9C-299.1,272.6 -299.5,272.2 -299.9,271.7C-300.7,270.8 -301.6,269.7 -303.4,269.6C-303.8,269.6 -304.3,269.6 -304.7,269.7C-305.2,269.8 -305.6,270.4 -305.5,270.9C-305.4,271.4 -304.8,271.8 -304.3,271.7C-304.1,271.6 -303.8,271.6 -303.5,271.6C-302.7,271.6 -302.2,272.1 -301.5,273C-301,273.6 -300.4,274.2 -299.7,274.7C-298.6,275.3 -297.5,275.4 -296.6,275.4C-296,275.4 -295.5,275.5 -295.2,275.6C-294.8,275.8 -294.6,276.1 -294.3,276.5C-293.8,277.2 -293.2,278 -291.6,278.8C-290.2,279.5 -289.6,281.6 -289.4,282.6C-289.3,283 -289.2,283.3 -289,283.5C-288.8,283.7 -288.5,283.8 -288.3,283.8C-288.1,283.8 -287.8,283.7 -287.6,283.5C-287.3,283.2 -287.2,282.7 -287.4,282.3C-287.1,282.4 -287.1,282.3 -287.1,282.2Z" style="fill-rule:nonzero;"/>
        </g>
        <g transform="matrix(1,0,0,1,-0.604866,-15.9053)">
            <path d="M-294.9,280.5C-294.9,280.5 -296,280.3 -296.3,279.5C-296.9,277.9 -298.6,277.4 -299.4,277.5C-299.9,277.5 -300.4,278 -300.4,278.5C-300.4,279 -299.9,279.5 -299.4,279.5C-299.3,279.5 -298.5,279.5 -298.2,280.2C-297.6,281.7 -296,282.3 -295.2,282.5L-295.1,282.5C-294.6,282.5 -294.2,282.1 -294.1,281.6C-294,281.1 -294.4,280.6 -294.9,280.5Z" style="fill-rule:nonzero;"/>
        </g>
    </g>
    <g id="Layer1" transform="matrix(0.937564,0,0,0.937564,3.10088,4.97395)">
        <g transform="matrix(1,0,0,1,16,-13)">
            <path d="M112.913,51.123C114.546,33.527 133.864,34.625 134.678,34.75C136.305,34.999 148.544,36.714 150.603,50.787C150.681,51.322 150.758,54.557 150.589,56.667C150.719,55.773 150.799,54.745 150.799,53.574C150.799,59.988 150.14,66.224 148.365,71.953C156.663,74.231 159.141,80.172 160.074,82.19C162.864,88.221 162.921,94.579 158.409,101.043C157.521,102.315 155.235,105.844 149.744,107.882C148.917,110.102 147.55,112.386 145.349,114.621C143.289,116.712 140.449,118.71 136.537,119.711L136.395,120.429C135.15,125.714 131.973,131.014 124.755,133.883C124.389,134.029 123.976,134.178 123.519,134.319C125.357,138.209 125.4,141.829 125.066,144.56C124.577,148.567 122.97,152.167 120.054,155.274C116.408,159.159 111.021,162.265 103.233,161.075C101.881,160.869 97.594,158.622 94.794,157.084C95.781,157.897 96.602,158.543 96.665,158.571C94.55,157.599 92.408,156.609 90.325,155.553C89.213,155.628 88.048,155.608 86.832,155.487C86.052,155.41 85.018,155.148 83.895,154.791C75.124,157.613 65.354,153.692 61.104,145.202C59.699,145.109 58.385,144.882 57.183,144.566C54.255,143.797 51.645,142.597 49.445,140.875C46.912,140.695 44.461,140.424 43.438,140.035C38.601,138.195 35.726,135.134 33.955,132.383C32.825,130.627 31.947,128.723 31.377,126.683C27.353,124.542 24.698,121.473 23.064,118.342C19.882,112.244 20.334,106.847 22.231,102.107C22.737,100.841 24.477,99.099 26.588,97.333C26.603,95.18 26.722,92.794 27.131,91.122C27.285,90.494 27.546,89.787 27.873,89.048C27.437,88.154 27.104,87.267 26.889,86.408C23.835,74.191 30.783,65.862 39.806,61.565C44.633,59.266 49.754,57.744 54.947,56.546C61.546,55.023 67.902,54.962 74.644,54.962C80.792,54.962 86.612,54.955 92.399,55.666C94.555,53.203 96.996,51.254 99.564,50.715C103.605,49.867 107.634,50.764 110.795,51.981L112.491,52.271L112.66,51.837L112.913,51.123ZM110.721,51.968C110.033,51.723 109.343,51.53 108.687,51.421C107.571,51.235 104.602,51.247 104.602,51.247C104.602,51.247 107.451,51.469 110.721,51.968Z"/>
        </g>
        <g transform="matrix(1,0,0,1,16,-13)">
            <path d="M-0.307,72.349L-0.245,72.349C10.242,72.349 18.755,63.836 18.755,53.349C18.755,42.863 10.242,34.349 -0.245,34.349L-0.307,34.349C-10.794,34.349 -19.307,42.863 -19.307,53.349C-19.307,63.836 -10.794,72.349 -0.307,72.349Z"/>
        </g>
        <g transform="matrix(1,0,0,1,16,-13)">
            <path d="M11.583,113.186C10.604,112.21 9.434,111.369 8.542,110.337C4.129,105.227 2.689,100.406 2.689,93.852C2.689,92.903 2.99,89.336 3.051,88.93C5.077,75.238 16.901,73.323 17.889,73.113C24.444,71.716 32.194,72.463 37.929,81.574C38.321,82.197 40.285,84.634 40.749,89.554C44.47,94.052 47.861,98.835 49.648,104.639C50.558,107.597 50.882,111.417 50.61,115.352C56.375,115.192 62.145,117.647 66.012,122.502C72.546,130.704 71.192,142.668 62.99,149.202C60.147,151.466 48.13,153.453 48.13,153.453C48.13,153.453 48.782,153.477 49.012,153.477L42.644,153.477C36.683,153.477 26.618,152.146 19.996,148.268C10.712,142.832 5.073,134.261 7.365,121.258C7.752,119.058 9.597,115.984 11.583,113.186ZM15.155,108.539C16.324,107.105 17.149,106.181 17.149,106.181C17.149,106.181 16.239,107.088 15.894,107.505C15.641,107.81 15.39,108.157 15.155,108.539ZM10.68,107.069C5.935,103.616 2.85,98.019 2.85,91.707C2.85,100.09 6.206,104.694 10.68,107.069ZM40.222,96.557C39.094,100.84 36.506,104.534 33.021,107.069C34.173,106.283 38.474,103.567 40.222,96.557Z"/>
        </g>
        <g transform="matrix(1,0,0,1,16,-13)">
            <path d="M37.038,47.496C36.091,45.86 35.347,44.014 34.826,41.946C33.228,35.595 38.507,23.767 38.507,23.767C38.507,23.767 37.702,25.2 37.414,25.891C42.999,12.527 54.547,6.412 68.768,7.919C77.905,8.887 83.488,13.729 86.832,20.555C89.11,25.205 89.313,32.643 89.329,37.176C90.844,39.431 91.834,41.957 92.275,44.57C94.034,46.175 96.311,48.227 97.72,49.411C99.469,50.882 101.718,53.841 102.981,55.604C104.688,56.744 106.692,57.455 108.515,58.367C109.158,58.688 110.103,59.216 110.982,59.722C114.399,59.512 118.28,59.595 120.782,60.632C123.387,61.712 127.746,66.529 130.598,69.927C131.396,70.654 132.193,71.496 132.982,72.464C132.727,72.151 132.149,71.526 132.149,71.526L132.698,72.372C133.354,73.151 133.997,73.981 134.578,74.792C134.84,75.157 135.608,76.37 135.608,76.37L134.581,75.476C136.452,78.736 138.7,83.344 138.7,86.567C138.7,92.158 136.677,95.456 135.345,97.393C133.489,100.092 131.292,101.99 128.893,103.293C125.979,106.043 122.522,107.829 118.687,108.619C113.006,109.791 106.441,108.07 101.224,106.402C97.483,105.206 93.644,104.219 89.952,102.875C84.637,100.94 74.809,95.777 70.938,90.944C69.097,88.645 67.722,85.952 67.073,82.818C63.748,83.67 59.995,84.265 56.849,83.907C50.818,83.219 45.574,80.529 41.586,75.298C40.403,73.745 39.22,71.195 38.532,69.561C37.308,67.32 35.568,63.895 35.186,61.894C34.073,56.056 34.974,51.562 37.038,47.496ZM104.939,97.674L104.886,97.672L105.308,98.4C106.405,99.449 107.479,100.23 108.481,100.823L107.554,100.017L104.939,97.674ZM104.823,97.926L105.012,98.11L104.637,97.714L104.586,97.659L104.573,97.658L104.823,97.926ZM101.78,85.651L100.707,86.667L100.753,87.411L100.828,87.875L101.192,87.619L101.604,87.304C101.805,87.132 102.006,86.96 102.207,86.788L102.415,86.587L102.466,84.957L101.78,85.651ZM106.967,79.44L106.962,79.448L106.845,79.793L106.599,80.417L106.839,79.815L106.967,79.44ZM132.906,72.692L133.163,73.088L133.406,73.393C133.406,73.393 133.176,73.062 132.906,72.692ZM38.648,69.769C38.826,70.163 39.015,70.547 39.182,70.832C39.353,71.126 39.775,71.759 39.775,71.759C39.775,71.759 39.296,70.954 38.648,69.769ZM43.993,21.108L44.108,21.105L44.338,20.982L43.993,21.108ZM54.988,19.823L53.478,20.819L53.364,20.896L55.058,20.857L60.236,20.746C58.383,20.065 56.563,19.742 54.988,19.823Z"/>
        </g>
    </g>
</svg>
