<?xml version="1.0" encoding="UTF-8" standalone="no"?>
<!DOCTYPE svg PUBLIC "-//W3C//DTD SVG 1.1//EN" "http://www.w3.org/Graphics/SVG/1.1/DTD/svg11.dtd">
<svg width="100%" height="100%" viewBox="0 0 79 79" version="1.1" xmlns="http://www.w3.org/2000/svg" xmlns:xlink="http://www.w3.org/1999/xlink" xml:space="preserve" xmlns:serif="http://www.serif.com/" style="fill-rule:evenodd;clip-rule:evenodd;stroke-linejoin:round;stroke-miterlimit:2;">
    <g transform="matrix(1.23065,0,0,1.24111,423.892,-327.679)">
        <g transform="matrix(1.31694,0,0,1.27124,110.143,-82.9842)">
            <path d="M-331.4,291.8C-331.2,291.5 -331.2,291.3 -331.2,290.8C-331.2,289.7 -331.1,287.3 -329.6,286.1C-328.1,284.9 -327.6,283.9 -327.2,283C-327,282.5 -326.8,282.1 -326.4,281.7C-326.1,281.5 -325.5,281.3 -324.9,281.1C-323.9,280.8 -322.7,280.5 -321.7,279.6C-321,279 -320.5,278.1 -320.1,277.4C-319.5,276.3 -319.1,275.6 -318.1,275.4C-316.7,275.1 -315.9,275.6 -315.8,275.7C-315.3,276 -314.7,275.9 -314.4,275.4C-314.1,274.9 -314.2,274.3 -314.7,274C-314.8,274 -316.3,272.9 -318.5,273.4C-320.3,273.8 -321.1,275.2 -321.8,276.4C-322.2,277 -322.5,277.6 -323,278C-323.7,278.6 -324.6,278.8 -325.4,279C-326.3,279.2 -327.1,279.5 -327.7,280C-328.4,280.6 -328.7,281.3 -329,281.9C-329.4,282.7 -329.7,283.4 -330.8,284.2C-333,285.9 -333.1,289 -333.2,290.4L-333.2,290.7C-333.3,291.1 -333.1,291.6 -332.7,291.8C-332.5,291.9 -332.4,291.9 -332.2,291.9C-331.9,292.3 -331.5,292.2 -331.4,291.8Z" style="fill-rule:nonzero;stroke:black;stroke-width:3.13px;"/>
        </g>
        <g transform="matrix(1.98053,0,0,1.97666,323.341,-290.49)">
            <path d="M-320.8,283.1C-321.7,283.3 -323.4,284 -323.7,285.9C-323.9,286.9 -325.1,287.4 -325.1,287.4C-325.6,287.6 -325.9,288.1 -325.7,288.7C-325.6,289.1 -325.2,289.4 -324.8,289.4C-324.7,289.4 -324.6,289.4 -324.5,289.3C-324.4,289.3 -322.1,288.5 -321.7,286.2C-321.6,285.3 -320.5,285.1 -320.5,285.1C-320,285 -319.6,284.5 -319.7,283.9C-319.7,283.3 -320.2,283 -320.8,283.1Z" style="fill-rule:nonzero;stroke:black;stroke-width:2.04px;"/>
        </g>
        <g transform="matrix(2.03244,0,0,1.90531,365.936,-257.678)">
            <path d="M-343.4,280.4C-343.2,280.4 -343,280.5 -342.7,280.5C-341.8,280.5 -340.6,280.2 -339.8,279.2C-339.3,278.6 -338.5,278.9 -338.4,278.9C-337.9,279.1 -337.3,278.8 -337.1,278.3C-336.9,277.8 -337.2,277.2 -337.7,277C-338.5,276.7 -340.2,276.6 -341.3,277.9C-341.8,278.6 -343,278.4 -343,278.4C-343.5,278.3 -344.1,278.7 -344.2,279.2C-344.3,279.7 -344,280.3 -343.4,280.4Z" style="fill-rule:nonzero;stroke:black;stroke-width:2.05px;"/>
        </g>
        <g transform="matrix(1,0,0,1,-7.82323,-1.37183)">
            <path d="M-287.1,282.2C-287.4,281 -288.1,278.2 -290.4,277.1C-291.5,276.6 -291.9,276 -292.4,275.4C-292.8,274.9 -293.2,274.3 -294,273.9C-294.7,273.5 -295.5,273.5 -296.3,273.4C-297.1,273.4 -297.9,273.3 -298.6,272.9C-299.1,272.6 -299.5,272.2 -299.9,271.7C-300.7,270.8 -301.6,269.7 -303.4,269.6C-303.8,269.6 -304.3,269.6 -304.7,269.7C-305.2,269.8 -305.6,270.4 -305.5,270.9C-305.4,271.4 -304.8,271.8 -304.3,271.7C-304.1,271.6 -303.8,271.6 -303.5,271.6C-302.7,271.6 -302.2,272.1 -301.5,273C-301,273.6 -300.4,274.2 -299.7,274.7C-298.6,275.3 -297.5,275.4 -296.6,275.4C-296,275.4 -295.5,275.5 -295.2,275.6C-294.8,275.8 -294.6,276.1 -294.3,276.5C-293.8,277.2 -293.2,278 -291.6,278.8C-290.2,279.5 -289.6,281.6 -289.4,282.6C-289.3,283 -289.2,283.3 -289,283.5C-288.8,283.7 -288.5,283.8 -288.3,283.8C-288.1,283.8 -287.8,283.7 -287.6,283.5C-287.3,283.2 -287.2,282.7 -287.4,282.3C-287.1,282.4 -287.1,282.3 -287.1,282.2Z" style="fill-rule:nonzero;stroke:black;stroke-width:4.05px;"/>
        </g>
        <g transform="matrix(1,0,0,1,-7.94073,-11.6445)">
            <path d="M-294.9,280.5C-294.9,280.5 -296,280.3 -296.3,279.5C-296.9,277.9 -298.6,277.4 -299.4,277.5C-299.9,277.5 -300.4,278 -300.4,278.5C-300.4,279 -299.9,279.5 -299.4,279.5C-299.3,279.5 -298.5,279.5 -298.2,280.2C-297.6,281.7 -296,282.3 -295.2,282.5L-295.1,282.5C-294.6,282.5 -294.2,282.1 -294.1,281.6C-294,281.1 -294.4,280.6 -294.9,280.5Z" style="fill-rule:nonzero;stroke:black;stroke-width:4.05px;"/>
        </g>
    </g>
    <g id="Layer1">
        <g transform="matrix(1,0,0,1,-4.97254,-23.6827)">
            <g transform="matrix(31.1212,0,0,31.1212,6.57884,66.8364)">
                <path d="M0.223,-0.528L0.223,0.018C0.223,0.081 0.205,0.129 0.169,0.163C0.134,0.196 0.084,0.213 0.021,0.213C-0.006,0.213 -0.032,0.211 -0.057,0.205L-0.057,0.081C-0.038,0.083 -0.022,0.085 -0.01,0.085C0.035,0.085 0.058,0.062 0.058,0.017L0.058,-0.528L0.223,-0.528ZM2.199,0.267C2.199,0.244 2.207,0.225 2.224,0.21C2.241,0.195 2.263,0.187 2.29,0.187C2.317,0.187 2.339,0.195 2.356,0.21C2.373,0.225 2.381,0.244 2.381,0.267C2.381,0.291 2.373,0.31 2.356,0.325C2.339,0.34 2.317,0.347 2.29,0.347C2.263,0.347 2.241,0.34 2.224,0.325C2.207,0.31 2.199,0.291 2.199,0.267Z" style="fill-rule:nonzero;"/>
            </g>
            <g transform="matrix(31.1212,0,0,31.1212,14.9822,66.8364)">
                <path d="M0.202,-0.528L0.207,-0.466C0.244,-0.514 0.295,-0.538 0.358,-0.538C0.425,-0.538 0.47,-0.512 0.493,-0.458C0.529,-0.512 0.581,-0.538 0.648,-0.538C0.756,-0.538 0.811,-0.473 0.813,-0.344L0.813,-0L0.648,-0L0.648,-0.333C0.648,-0.361 0.644,-0.38 0.635,-0.393C0.626,-0.405 0.609,-0.411 0.585,-0.411C0.552,-0.411 0.528,-0.397 0.512,-0.368L0.513,-0.361L0.513,-0L0.348,-0L0.348,-0.333C0.348,-0.36 0.343,-0.38 0.334,-0.393C0.326,-0.405 0.309,-0.411 0.284,-0.411C0.253,-0.411 0.229,-0.397 0.212,-0.368L0.212,-0L0.047,-0L0.047,-0.528L0.202,-0.528Z" style="fill-rule:nonzero;"/>
            </g>
            <g transform="matrix(31.1212,0,0,31.1212,41.7878,66.8364)">
                <path d="M0.24,-0.127L0.481,-0.127L0.481,-0L0.032,-0L0.032,-0.092L0.267,-0.401L0.042,-0.401L0.042,-0.528L0.476,-0.528L0.476,-0.439L0.24,-0.127Z" style="fill-rule:nonzero;"/>
            </g>
        </g>
        <g transform="matrix(1,0,0,1,-6.05958,36.4945)">
            <path d="M56.386,31.808L55.413,31.808L55.413,38.342L50.277,38.342L50.277,15.002L55.413,15.002L55.413,27.933L56.264,27.933L59.592,21.9L65.488,21.9L60.519,29.346L65.959,38.342L60.093,38.342L56.386,31.808Z"/>
            <text x="5.844px" y="38.342px" style="font-family:'Roboto-Black', 'Roboto';font-weight:900;font-size:31.121px;">x.u</text>
        </g>
    </g>
</svg>
