<?xml version="1.0" encoding="UTF-8" standalone="no"?>
<!DOCTYPE svg PUBLIC "-//W3C//DTD SVG 1.1//EN" "http://www.w3.org/Graphics/SVG/1.1/DTD/svg11.dtd">
<svg width="100%" height="100%" viewBox="0 0 20 20" version="1.1" xmlns="http://www.w3.org/2000/svg" xmlns:xlink="http://www.w3.org/1999/xlink" xml:space="preserve" xmlns:serif="http://www.serif.com/" style="fill-rule:evenodd;clip-rule:evenodd;stroke-linejoin:round;stroke-miterlimit:2;">
    <g transform="matrix(0.463576,0,0,0.463576,-31.4901,-22)">
        <g transform="matrix(0.285714,0,0,0.285714,67.9286,49.0698)">
            <path d="M12,17.033L12,79.009L0,79.009L0,7.013C0,1.239 6.596,-2.052 11.209,1.42L68.209,44.315C69.966,45.637 71,47.708 71,49.908L71,79.009L59,79.009L59,52.403L12,17.033Z" style="fill:white;fill-rule:nonzero;"/>
        </g>
        <g transform="matrix(0.285714,0,0,0.285714,67.9286,49.0698)">
            <path d="M139,79.009L139,17.033L92,52.403L92,79.009L80,79.009L80,49.908C80,47.708 81.034,45.637 82.791,44.315L139.791,1.42C144.404,-2.052 151,1.239 151,7.013L151,79.009L139,79.009Z" style="fill:white;fill-rule:nonzero;"/>
        </g>
        <g transform="matrix(0.28511,0,0,0.28511,87.9319,49.1113)">
            <g id="Layer1">
                <path d="M12,17.033L12,79.009L0,79.009L0,7.013C0,1.239 6.596,-2.052 11.209,1.42L68.209,44.315C69.966,45.637 71,47.708 71,49.908L71,79.009L59,79.009L59,52.403L12,17.033Z" style="fill:white;fill-rule:nonzero;"/>
            </g>
        </g>
        <g transform="matrix(0.28511,0,0,0.28511,48.0165,49.1113)">
            <g id="Layer2">
                <path d="M139,79.009L139,17.033L92,52.403L92,79.009L80,79.009L80,49.908C80,47.708 81.034,45.637 82.791,44.315L139.791,1.42C144.404,-2.052 151,1.239 151,7.013L151,79.009L139,79.009Z" style="fill:white;fill-rule:nonzero;"/>
            </g>
        </g>
    </g>
    <g transform="matrix(0.463576,0,0,-0.463576,-31.4901,41.6932)">
        <g transform="matrix(0.285714,0,0,0.285714,67.9286,49.0698)">
            <path d="M12,17.033L12,79.009L0,79.009L0,7.013C0,1.239 6.596,-2.052 11.209,1.42L68.209,44.315C69.966,45.637 71,47.708 71,49.908L71,79.009L59,79.009L59,52.403L12,17.033Z" style="fill:white;fill-rule:nonzero;"/>
        </g>
        <g transform="matrix(0.285714,0,0,0.285714,67.9286,49.0698)">
            <path d="M139,79.009L139,17.033L92,52.403L92,79.009L80,79.009L80,49.908C80,47.708 81.034,45.637 82.791,44.315L139.791,1.42C144.404,-2.052 151,1.239 151,7.013L151,79.009L139,79.009Z" style="fill:white;fill-rule:nonzero;"/>
        </g>
        <g transform="matrix(0.28511,0,0,0.28511,87.9319,49.1113)">
            <g id="Layer11" serif:id="Layer1">
                <path d="M12,17.033L12,79.009L0,79.009L0,7.013C0,1.239 6.596,-2.052 11.209,1.42L68.209,44.315C69.966,45.637 71,47.708 71,49.908L71,79.009L59,79.009L59,52.403L12,17.033Z" style="fill:white;fill-rule:nonzero;"/>
            </g>
        </g>
        <g transform="matrix(0.28511,0,0,0.28511,48.0165,49.1113)">
            <g id="Layer21" serif:id="Layer2">
                <path d="M139,79.009L139,17.033L92,52.403L92,79.009L80,79.009L80,49.908C80,47.708 81.034,45.637 82.791,44.315L139.791,1.42C144.404,-2.052 151,1.239 151,7.013L151,79.009L139,79.009Z" style="fill:white;fill-rule:nonzero;"/>
            </g>
        </g>
    </g>
</svg>
