<?xml version="1.0" encoding="UTF-8" standalone="no"?>
<!DOCTYPE svg PUBLIC "-//W3C//DTD SVG 1.1//EN" "http://www.w3.org/Graphics/SVG/1.1/DTD/svg11.dtd">
<svg width="100%" height="100%" viewBox="0 0 20 20" version="1.1" xmlns="http://www.w3.org/2000/svg" xmlns:xlink="http://www.w3.org/1999/xlink" xml:space="preserve" xmlns:serif="http://www.serif.com/" style="fill-rule:evenodd;clip-rule:evenodd;stroke-linejoin:round;stroke-miterlimit:2;">
    <g id="Xing" transform="matrix(0.229874,0,0,0.21347,-1.36845,-0.717749)">
        <path d="M60.363,95L36.236,59.717L71.111,20.005L92.5,5L61.262,59.717L81.391,95L60.363,95ZM27.322,67.787L44.939,42.076L31.227,21.446L11.404,21.446L23.117,42.076L7.5,67.787L27.322,67.787Z" style="fill-rule:nonzero;"/>
    </g>
    <g transform="matrix(6.08268e-18,-0.0993377,0.0993377,6.08268e-18,2.9724,10.4014)">
        <path d="M12,17.033L12,28.675L0,28.675L0,7.013C0,1.239 6.596,-2.052 11.209,1.42L68.209,44.315C69.966,45.637 71,47.708 71,49.908L71,119.275L59,109.209L59,52.403L12,17.033Z" style="fill:rgb(38,38,38);fill-rule:nonzero;"/>
    </g>
    <g id="Layer4">
        <g transform="matrix(6.08268e-18,-0.0993377,0.0993377,6.08268e-18,2.9724,18.7458)">
            <g transform="matrix(1,0,0,1,14,0)">
                <path d="M12,17.033L12,79.009L0,79.009L0,7.013C0,1.239 6.596,-2.052 11.209,1.42L68.209,44.315C69.966,45.637 71,47.708 71,49.908L71,79.009L59,79.009L59,52.403L12,17.033Z" style="fill:rgb(38,38,38);fill-rule:nonzero;"/>
            </g>
            <g transform="matrix(1,0,0,1,14,0)">
                <path d="M139,28.675L139,17.033L92,52.403L92,79.009L80,79.009L80,49.908C80,47.708 81.034,45.637 82.791,44.315L139.791,1.42C144.404,-2.052 151,1.239 151,7.013L151,28.675L139,28.675Z" style="fill:rgb(38,38,38);fill-rule:nonzero;"/>
            </g>
            <g transform="matrix(1,0,0,-1,14,137.395)">
                <path d="M12,17.033L12,38.742L0,48.809L0,7.013C0,1.239 6.596,-2.052 11.209,1.42L68.209,44.315C69.966,45.637 71,47.708 71,49.908L71,79.009L59,79.009L59,52.403L12,17.033Z" style="fill:rgb(38,38,38);fill-rule:nonzero;"/>
            </g>
            <g transform="matrix(1,0,0,-1,14,137.395)">
                <path d="M151,7.013L92,52.403L92,79.009L80,79.009L80,49.908C80,47.708 81.034,45.637 82.791,44.315L139.791,1.42C144.404,-2.052 151,1.239 151,7.013Z" style="fill:rgb(38,38,38);fill-rule:nonzero;"/>
            </g>
        </g>
        <g transform="matrix(6.08268e-18,-0.0993377,-0.0993377,-6.08268e-18,16.6209,18.7458)">
            <g transform="matrix(1,0,0,1,84,0)">
                <g id="Layer1">
                    <path d="M12,17.033L12,28.675L0,28.675L0,7.013C0,1.239 6.596,-2.052 11.209,1.42L68.209,44.315C69.966,45.637 71,47.708 71,49.908L71,58.875L59,58.875L59,52.403L12,17.033Z" style="fill:rgb(38,38,38);fill-rule:nonzero;"/>
                </g>
            </g>
            <g transform="matrix(1,0,0,1,-56,0)">
                <g id="Layer2">
                    <path d="M139,28.675L139,17.033L92,52.403L92,79.009L80,79.009L80,49.908C80,47.708 81.034,45.637 82.791,44.315L139.791,1.42C144.404,-2.052 151,1.239 151,7.013L151,28.675L139,28.675Z" style="fill:rgb(38,38,38);fill-rule:nonzero;"/>
                </g>
            </g>
            <g id="Layer11" serif:id="Layer1">
            </g>
            <g transform="matrix(1,0,0,-1,-56,137.395)">
                <g id="Layer21" serif:id="Layer2">
                    <path d="M151,7.013L139,17.033L92,52.403L92,79.009L80,79.009L80,49.908C80,47.708 81.034,45.637 82.791,44.315L139.791,1.42C144.404,-2.052 151,1.239 151,7.013Z" style="fill:rgb(38,38,38);fill-rule:nonzero;"/>
                </g>
            </g>
        </g>
    </g>
</svg>
