<?xml version="1.0" encoding="UTF-8" standalone="no"?>
<!DOCTYPE svg PUBLIC "-//W3C//DTD SVG 1.1//EN" "http://www.w3.org/Graphics/SVG/1.1/DTD/svg11.dtd">
<svg width="100%" height="100%" viewBox="0 0 20 20" version="1.1" xmlns="http://www.w3.org/2000/svg" xmlns:xlink="http://www.w3.org/1999/xlink" xml:space="preserve" xmlns:serif="http://www.serif.com/" style="fill-rule:evenodd;clip-rule:evenodd;stroke-linejoin:round;stroke-miterlimit:2;">
    <g id="Xing" transform="matrix(0.229874,0,0,0.21347,-1.36845,-0.717749)">
        <path d="M60.363,95L36.236,59.717L71.474,5L92.5,5L61.262,59.717L81.391,95L60.363,95ZM27.322,67.787L44.939,42.076L31.227,21.446L11.404,21.446L23.117,42.076L7.5,67.787L27.322,67.787Z" style="fill:rgb(26,26,26);fill-rule:nonzero;"/>
    </g>
    <g transform="matrix(0.177214,0,0,0.177214,-0.355959,4.74112)">
        <g id="Layer3">
            <path id="Twitter__x28_alt_x29_" d="M84.803,46.564C89.858,46.147 88.9,46.433 83.996,41.909C83.843,41.175 83.672,40.477 83.504,39.847C81.122,31.101 72.967,24.055 64.422,24.906C65.113,24.627 65.814,24.367 66.514,24.134C67.454,23.797 72.973,22.899 72.104,20.951C71.371,19.238 64.629,22.246 63.36,22.639C65.035,22.009 67.807,20.925 68.103,18.999C65.536,19.351 63.016,20.565 61.069,22.33C61.772,21.573 62.305,20.651 62.418,19.658C55.57,24.033 51.096,22.169 47.859,30.724C45.317,28.261 43.486,28.789 41.652,27.418C24.989,14.957 27.867,2.629 10.41,-3.863C10.083,-0.342 20.167,33.967 26.126,37.08C24.835,36.907 15.559,37.466 13.671,37.918C14.44,41.952 23.866,45.102 30.665,46.709C27.558,46.914 21.959,46.857 20.504,48.381C21.919,51.186 26.692,54.168 35.577,54.574C26.261,56.299 30.793,61.795 38.381,62.241C28.794,72.143 13.679,71.416 5,63.134C27.661,94.013 76.921,81.396 84.262,51.653C89.966,44.326 87.239,47.578 84.803,46.564Z" style="fill:rgb(153,153,153);fill-rule:nonzero;"/>
        </g>
    </g>
</svg>
